<svg width="748" height="748" viewBox="0 0 748 748" fill="none" xmlns="http://www.w3.org/2000/svg">
<path d="M374 0L412.321 82.9217L470.798 12.7437L486.352 102.758L561 50.1065L552.726 141.079L638.458 109.542L606.921 195.274L697.893 187L645.242 261.648L735.256 277.202L665.078 335.679L748 374L665.078 412.321L735.256 470.798L645.242 486.352L697.893 561L606.921 552.726L638.458 638.458L552.726 606.921L561 697.893L486.352 645.242L470.798 735.256L412.321 665.078L374 748L335.679 665.078L277.202 735.256L261.648 645.242L187 697.893L195.274 606.921L109.542 638.458L141.079 552.726L50.1065 561L102.758 486.352L12.7437 470.798L82.9217 412.321L0 374L82.9217 335.679L12.7437 277.202L102.758 261.648L50.1065 187L141.079 195.274L109.542 109.542L195.274 141.079L187 50.1065L261.648 102.758L277.202 12.7437L335.679 82.9217L374 0Z" fill="currentColor"/>
</svg>
